# xmcd CD database file
#
# Track frame offsets:
#	150
#	24816
#	50914
#	79526
#	114417
#	141358
#	148988
#	165895
#	192282
#	210581
#	230286
#
# Disc length: 3394 seconds
#
# Revision: 0
# Processed by: cddbd v1.5.1PL2 Copyright (c) Steve Scherf et al.
# Submitted via: CDex 1.51
#
DISCID=8f0d400b
DTITLE=スカンジナビアン・トリオ - テンダーシルエット
DYEAR=2003
DGENRE=Jazz
TTITLE0=アメリカ・ソング
TTITLE1=時さえ忘れて
TTITLE2=シルエット
TTITLE3=ドリーマー
TTITLE4=ラブ・レターズ
TTITLE5=空の下の物すべてに
TTITLE6=ビッグ・リトル・ガール
TTITLE7=遥かな国から
TTITLE8=スティックス
TTITLE9=アロンゾとイモジェネ
TTITLE10=魅せられし心
EXTD=YEAR: 2003
EXTT0=
EXTT1=
EXTT2=
EXTT3=
EXTT4=
EXTT5=
EXTT6=
EXTT7=
EXTT8=
EXTT9=
EXTT10=
PLAYORDER=
